<?xml version="1.0" encoding="iso-8859-1"?>
<!-- Generator: Adobe Illustrator 19.0.0, SVG Export Plug-In . SVG Version: 6.00 Build 0)  -->
<svg version="1.1" id="Layer_1" xmlns="http://www.w3.org/2000/svg" xmlns:xlink="http://www.w3.org/1999/xlink" x="0px" y="0px"
	 viewBox="0 0 512 512" style="enable-background:new 0 0 512 512;" xml:space="preserve">
<path style="fill:#F8B64C;" d="M459.733,425.6h-406.4c-7.467,0-12.8-5.333-12.8-12.8v-2.133c0-7.467,5.333-12.8,12.8-12.8h406.4
	c7.467,0,12.8,5.333,12.8,12.8v2.133C472.533,419.2,467.2,425.6,459.733,425.6z"/>
<g>
	<path style="fill:#FFD15C;" d="M497.067,172.8l-3.2,12.8c0,0-34.133,57.6-45.867,144H64c-11.733-86.4-45.867-144-45.867-144
		l-3.2-12.8c6.4,11.733,41.6,58.667,41.6,58.667c25.6,37.333,44.8,19.2,44.8,19.2C128,232.533,122.667,166.4,122.667,166.4
		l3.2-8.533h6.4c17.067,46.933,44.8,67.2,44.8,67.2c38.4,35.2,57.6-41.6,57.6-41.6L256,108.8l21.333,74.667
		c0,0,18.133,76.8,57.6,41.6c0,0,26.667-21.333,44.8-67.2h6.4l3.2,8.533c0,0-5.333,66.133,21.333,84.267
		c0,0,20.267,18.133,44.8-19.2C455.467,231.467,490.667,184.533,497.067,172.8z"/>
	<path style="fill:#FFD15C;" d="M497.067,172.8l-3.2,12.8c0,0-2.133,3.2-5.333,9.6c-9.6,19.2-32,68.267-40.533,134.4H64
		c-9.6-66.133-30.933-115.2-40.533-134.4c-3.2-6.4-5.333-9.6-5.333-9.6l-3.2-12.8c2.133,3.2,7.467,10.667,12.8,19.2
		c12.8,17.067,28.8,39.467,28.8,39.467c25.6,37.333,44.8,19.2,44.8,19.2c19.2-12.8,22.4-50.133,22.4-70.4c0-8.533,0-13.867,0-13.867
		l3.2-8.533h6.4c2.133,6.4,5.333,11.733,7.467,18.133c17.067,34.133,37.333,50.133,37.333,50.133c38.4,35.2,57.6-41.6,57.6-41.6
		l11.733-42.667l8.533-32l8.533,32l11.733,42.667c0,0,18.133,76.8,57.6,41.6c0,0,20.267-16,37.333-50.133
		c3.2-5.333,5.333-11.733,7.467-18.133h6.4l3.2,8.533c0,0-1.067,5.333-1.067,13.867c0,20.267,2.133,57.6,22.4,70.4
		c0,0,20.267,18.133,44.8-19.2c0,0,16-21.333,28.8-39.467C489.6,183.467,494.933,176,497.067,172.8z"/>
	<path style="fill:#FFD15C;" d="M448,346.667L448,346.667H64l0,0c0,16-4.267,26.667-14.933,39.467c-5.333,6.4-9.6,16-9.6,25.6H473.6
		c0-9.6-3.2-18.133-9.6-25.6C453.333,373.333,448,362.667,448,346.667z"/>
</g>
<path style="opacity:0.1;fill:#231F20;enable-background:new    ;" d="M64,372.267h385.067c2.133,0,3.2,0,5.333-1.067
	c-4.267-7.467-6.4-14.933-6.4-25.6H64c0,9.6-2.133,18.133-6.4,25.6C59.733,372.267,61.867,372.267,64,372.267z"/>
<polygon style="fill:#54C0EB;" points="256,230.4 220.8,250.667 220.8,291.2 256,312.533 291.2,291.2 291.2,250.667 "/>
<g>
	<polygon style="fill:#84DBFF;" points="256,266.667 274.133,256 256,246.4 237.867,256 	"/>
	<polygon style="fill:#84DBFF;" points="256,276.267 237.867,285.867 256,296.533 274.133,285.867 	"/>
</g>
<path style="fill:#FF7058;" d="M449.067,324.267H64c-10.667,0-19.2,8.533-19.2,19.2c0,10.667,8.533,19.2,19.2,19.2h385.067
	c10.667,0,19.2-8.533,19.2-19.2C467.2,332.8,459.733,324.267,449.067,324.267z"/>
<g style="opacity:0.1;">
	<path style="fill:#231F20;" d="M264.533,140.8c-3.2,1.067-5.333,1.067-8.533,1.067c-3.2,0-6.4,0-8.533-1.067l8.533-32
		L264.533,140.8z"/>
	<path style="fill:#231F20;" d="M389.333,166.4c0,0-1.067,5.333-1.067,13.867c-1.067,0-1.067,0-2.133,0
		c-5.333,0-10.667-1.067-14.933-4.267c3.2-5.333,5.333-11.733,7.467-18.133h6.4L389.333,166.4z"/>
	<path style="fill:#231F20;" d="M140.8,176c-4.267,2.133-9.6,4.267-14.933,4.267c0,0-1.067,0-2.133,0c0-8.533,0-13.867,0-13.867
		l3.2-8.533h6.4C135.467,164.267,138.667,170.667,140.8,176z"/>
</g>
<g>
	<circle style="fill:#FF7058;" cx="256" cy="108.8" r="22.4"/>
	<circle style="fill:#FF7058;" cx="386.133" cy="148.267" r="20.267"/>
	<circle style="fill:#FF7058;" cx="125.867" cy="148.267" r="20.267"/>
	<circle style="fill:#FF7058;" cx="498.133" cy="172.8" r="13.867"/>
	<circle style="fill:#FF7058;" cx="13.867" cy="172.8" r="13.867"/>
</g>
<g>
</g>
<g>
</g>
<g>
</g>
<g>
</g>
<g>
</g>
<g>
</g>
<g>
</g>
<g>
</g>
<g>
</g>
<g>
</g>
<g>
</g>
<g>
</g>
<g>
</g>
<g>
</g>
<g>
</g>
</svg>
